<svg width="25" height="24" viewBox="0 0 25 24" fill="none" xmlns="http://www.w3.org/2000/svg">
<g clip-path="url(#clip0_594_2212)">
<path d="M22.28 0.0707295L7.28143 4.49995C6.97697 4.59559 6.71095 4.78583 6.52203 5.04303C6.33311 5.30023 6.23115 5.61098 6.23096 5.9301V18.1837C5.73978 18.0645 5.23639 18.0028 4.73096 17.9999C2.24658 17.9999 0.230957 19.3434 0.230957 20.9999C0.230957 22.6565 2.24658 23.9999 4.73096 23.9999C7.21533 23.9999 9.23096 22.6565 9.23096 20.9999V10.0462L21.231 6.53057V15.1842C20.7398 15.0645 20.2364 15.0027 19.731 14.9999C17.2466 14.9999 15.231 16.3434 15.231 17.9999C15.231 19.6565 17.2466 20.9999 19.731 20.9999C22.2153 20.9999 24.231 19.657 24.231 17.9999V1.49995C24.2307 1.26447 24.1751 1.03235 24.0685 0.82237C23.9619 0.612394 23.8074 0.430463 23.6174 0.291301C23.4275 0.152139 23.2074 0.0596561 22.9751 0.0213366C22.7427 -0.0169829 22.5046 -6.21006e-05 22.28 0.0707295Z" fill="white"/>
</g>
<defs>
<clipPath id="clip0_594_2212">
<rect width="24" height="24" fill="white" transform="translate(0.230957)"/>
</clipPath>
</defs>
</svg>
