<svg width="24" height="25" viewBox="0 0 24 25" fill="none" xmlns="http://www.w3.org/2000/svg">
<path d="M13 22.3965H5C3 22.3965 2 21.3965 2 19.3965V11.3965C2 9.39648 3 8.39648 5 8.39648H10V19.3965C10 21.3965 11 22.3965 13 22.3965Z" stroke="white" stroke-width="1.5" stroke-miterlimit="10" stroke-linecap="round" stroke-linejoin="round"/>
<path d="M10.11 4.39648C10.03 4.69648 10 5.02648 10 5.39648V8.39648H5V6.39648C5 5.29648 5.9 4.39648 7 4.39648H10.11Z" stroke="white" stroke-width="1.5" stroke-miterlimit="10" stroke-linecap="round" stroke-linejoin="round"/>
<path d="M14 8.39648V13.3965" stroke="white" stroke-width="1.5" stroke-miterlimit="10" stroke-linecap="round" stroke-linejoin="round"/>
<path d="M18 8.39648V13.3965" stroke="white" stroke-width="1.5" stroke-miterlimit="10" stroke-linecap="round" stroke-linejoin="round"/>
<path d="M17 17.3965H15C14.45 17.3965 14 17.8465 14 18.3965V22.3965H18V18.3965C18 17.8465 17.55 17.3965 17 17.3965Z" stroke="white" stroke-width="1.5" stroke-miterlimit="10" stroke-linecap="round" stroke-linejoin="round"/>
<path d="M6 13.3965V17.3965" stroke="white" stroke-width="1.5" stroke-miterlimit="10" stroke-linecap="round" stroke-linejoin="round"/>
<path d="M10 19.3965V5.39648C10 3.39648 11 2.39648 13 2.39648H19C21 2.39648 22 3.39648 22 5.39648V19.3965C22 21.3965 21 22.3965 19 22.3965H13C11 22.3965 10 21.3965 10 19.3965Z" stroke="white" stroke-width="1.5" stroke-miterlimit="10" stroke-linecap="round" stroke-linejoin="round"/>
</svg>
