<svg width="24" height="25" viewBox="0 0 24 25" fill="none" xmlns="http://www.w3.org/2000/svg">
<path d="M17.1 11.6953H14.3V9.94531C14.3 9.57022 14.3944 9.25577 14.5862 9.03999C14.7679 8.83559 15.1033 8.64531 15.75 8.64531H17.25H17.75V8.14531V5.14531V4.74423L17.3585 4.65722L17.25 5.14531C17.3585 4.65722 17.3584 4.65721 17.3583 4.65719L17.3582 4.65716L17.3578 4.65707L17.3567 4.65682L17.3529 4.656L17.3396 4.65312L17.2909 4.64284C17.2489 4.63413 17.1882 4.62187 17.1115 4.60727C16.9583 4.57807 16.7405 4.53937 16.4795 4.50071C15.96 4.42375 15.2586 4.34531 14.55 4.34531C13.098 4.34531 11.8349 4.79084 10.9339 5.69176C10.0324 6.59335 9.55 7.89452 9.55 9.49531V11.6953H7.05H6.55V12.1953V15.6453V16.1453H7.05H9.55V23.4447C4.37805 22.3507 0.5 17.7431 0.5 12.1953C0.5 5.87146 5.67614 0.695312 12 0.695312C18.3239 0.695312 23.5 5.87146 23.5 12.1953C23.5 17.7554 19.6056 22.5084 14.15 23.6004V16.1453H16.5H16.9205L16.9926 15.731L17.5926 12.281L17.6945 11.6953H17.1Z" stroke="white"/>
</svg>
