<svg width="24" height="25" viewBox="0 0 24 25" fill="none" xmlns="http://www.w3.org/2000/svg">
<path d="M7.08434 2.51633H7.06877L7.05333 2.51826C5.89365 2.66322 5.29841 2.80965 4.84562 2.9599C4.21665 3.11912 3.74711 3.43675 3.2931 3.89076C2.91912 4.26475 2.74102 4.64172 2.54796 5.05038L2.54247 5.062C2.54247 5.062 2.54247 5.062 2.54247 5.062C2.49068 5.1716 2.43767 5.28378 2.3788 5.40152L2.37086 5.41741L2.36524 5.43427C2.34424 5.49726 2.31974 5.56426 2.29177 5.64067C2.13633 6.06533 1.91867 6.6617 1.91867 7.68199V17.5133V17.5289L1.92061 17.5443C2.06557 18.704 2.21199 19.2993 2.36224 19.752C2.52146 20.381 2.8391 20.8505 3.2931 21.3046C3.66709 21.6785 4.04407 21.8566 4.45274 22.0497L4.46435 22.0552C4.57403 22.107 4.68601 22.1599 4.80386 22.2189L4.81975 22.2268L4.8366 22.2324C4.8996 22.2534 4.96661 22.2779 5.04301 22.3059L5.12894 22.0711L5.04301 22.3059C5.46768 22.4613 6.06405 22.679 7.08434 22.679H16.9157H16.9312L16.9467 22.6771C18.1063 22.5321 18.7016 22.3857 19.1544 22.2354C19.7833 22.0762 20.2529 21.7586 20.7069 21.3046C21.0809 20.9306 21.259 20.5536 21.452 20.1449L21.4575 20.1333C21.5093 20.0237 21.5623 19.9116 21.6212 19.7938L21.6291 19.7779L21.6348 19.7611C21.6558 19.6981 21.6803 19.631 21.7082 19.5546C21.8637 19.13 22.0813 18.5336 22.0813 17.5133V7.68199V7.66643L22.0794 7.65099C21.9344 6.4913 21.788 5.89605 21.6378 5.44326C21.4785 4.8143 21.1609 4.34477 20.7069 3.89076C20.3329 3.51677 19.9559 3.33868 19.5473 3.14562L19.5357 3.14013C19.4261 3.08838 19.3138 3.03528 19.1961 2.97646L19.1803 2.96851L19.1634 2.96289C19.1004 2.9419 19.0334 2.91739 18.957 2.88943C18.5323 2.73399 17.936 2.51633 16.9157 2.51633H7.08434ZM4.9763 3.4426L4.98561 3.44027L4.99472 3.43724C5.40642 3.3 5.96444 3.15891 7.09994 3.01633H16.9157C17.8491 3.01633 18.3814 3.21118 18.7829 3.35815L18.7851 3.35896L18.7871 3.3597C18.8553 3.38467 18.9229 3.40941 18.9883 3.43152C19.1056 3.48993 19.2173 3.54269 19.3214 3.59189L19.3221 3.59221L19.4289 3.36617L19.3221 3.59221C19.7386 3.78901 20.0445 3.93542 20.3533 4.24431C20.7645 4.65551 21.0243 5.05103 21.1551 5.57395L21.1574 5.58327L21.1604 5.59238C21.2977 6.00408 21.4387 6.5621 21.5813 7.6976V17.5133C21.5813 18.4467 21.3865 18.979 21.2395 19.3806L21.2387 19.3828L21.2381 19.3845C21.213 19.4529 21.1883 19.5205 21.1661 19.5859C21.1078 19.7032 21.0553 19.8143 21.0061 19.9184L21.0054 19.9197C20.8086 20.3363 20.6622 20.6421 20.3533 20.951C19.9421 21.3622 19.5466 21.622 19.0237 21.7527L19.0144 21.755L19.0053 21.7581C18.5936 21.8953 18.0356 22.0364 16.9001 22.179H7.08434C6.15095 22.179 5.61862 21.9841 5.21709 21.8372L5.21488 21.8364L5.21316 21.8357C5.14485 21.8107 5.07715 21.7859 5.01175 21.7638C4.89424 21.7053 4.78292 21.6527 4.6786 21.6034L4.67794 21.6031L4.57115 21.8291L4.67794 21.6031C4.2614 21.4063 3.95555 21.2599 3.64666 20.951C3.23546 20.5398 2.97568 20.1443 2.84495 19.6214L2.84262 19.612L2.83958 19.6029C2.70235 19.1912 2.56125 18.6332 2.41867 17.4977V7.68199C2.41867 6.7486 2.61353 6.21627 2.7605 5.81474L2.7613 5.81253L2.76202 5.81057C2.787 5.74234 2.81175 5.67473 2.83386 5.6094C2.89221 5.49219 2.94481 5.38087 2.99398 5.2768L2.99455 5.2756L2.99455 5.2756C3.19136 4.85905 3.33777 4.5532 3.64666 4.24431C4.05786 3.83311 4.45337 3.57333 4.9763 3.4426ZM12 16.3958C9.96354 16.3958 8.20181 14.7671 8.20181 12.5977C8.20181 10.5612 9.8306 8.79946 12 8.79946C14.0365 8.79946 15.7982 10.4283 15.7982 12.5977C15.7982 14.6283 14.0306 16.3958 12 16.3958ZM7.70181 12.5977C7.70181 15.0548 9.69911 16.8958 12 16.8958C14.3067 16.8958 16.2982 14.9044 16.2982 12.5977C16.2982 10.1405 14.3009 8.29946 12 8.29946C9.54289 8.29946 7.70181 10.2968 7.70181 12.5977ZM12 6.13079C8.39205 6.13079 5.53313 8.98971 5.53313 12.5977C5.53313 16.2056 8.39205 19.0645 12 19.0645C15.608 19.0645 18.4669 16.2056 18.4669 12.5977C18.4669 8.98971 15.608 6.13079 12 6.13079ZM6.03313 12.5977C6.03313 9.26585 8.66819 6.63079 12 6.63079C15.3318 6.63079 17.9669 9.26585 17.9669 12.5977C17.9669 15.9295 15.3318 18.5645 12 18.5645C8.66819 18.5645 6.03313 15.9295 6.03313 12.5977ZM19.5572 6.23621C19.5572 6.89663 19.0219 7.43199 18.3614 7.43199C17.701 7.43199 17.1657 6.89663 17.1657 6.23621C17.1657 5.5758 17.701 5.04043 18.3614 5.04043C19.0219 5.04043 19.5572 5.5758 19.5572 6.23621ZM18.3614 7.93199C19.298 7.93199 20.0572 7.17277 20.0572 6.23621C20.0572 5.29966 19.298 4.54043 18.3614 4.54043C17.4249 4.54043 16.6657 5.29966 16.6657 6.23621C16.6657 7.17277 17.4249 7.93199 18.3614 7.93199ZM7.08434 0.847656H16.9018C18.1892 0.991042 19.0209 1.13247 19.7049 1.40429C20.5648 1.83427 21.1096 2.10901 21.7991 2.79853C22.4965 3.49592 22.9121 4.18971 23.1896 4.88328C23.472 5.58925 23.75 6.42382 23.75 7.68199V17.4995C23.6066 18.7868 23.4652 19.6186 23.1934 20.3025C22.7634 21.1624 22.4886 21.7073 21.7991 22.3968C21.1017 23.0942 20.408 23.5098 19.7144 23.7872C19.0084 24.0696 18.1738 24.3477 16.9157 24.3477H7.0982C5.81083 24.2043 4.9791 24.0628 4.29515 23.791C3.43521 23.361 2.8904 23.0863 2.20087 22.3968C1.50348 21.6994 1.08786 21.0056 0.810433 20.312C0.528045 19.6061 0.25 18.7715 0.25 17.5133V7.69586C0.393386 6.40849 0.534816 5.57676 0.806633 4.89281C1.23662 4.03286 1.51135 3.48806 2.20087 2.79853C2.89827 2.10114 3.59205 1.68552 4.28562 1.40809C4.99159 1.1257 5.82617 0.847656 7.08434 0.847656Z" stroke="white" stroke-width="0.5"/>
</svg>
