<svg width="24" height="25" viewBox="0 0 24 25" fill="none" xmlns="http://www.w3.org/2000/svg">
<path d="M17.384 8.03919L17.0689 8.42744L17.384 8.03918C17.2383 7.92101 17.075 7.86453 16.9557 7.83601C16.8332 7.80673 16.7172 7.79755 16.6324 7.79897L16.6318 7.79898C16.3342 7.80428 16.0031 7.8884 15.4041 8.10576C14.7966 8.32625 13.8594 8.70528 12.3269 9.3427C11.2484 9.79127 9.09903 10.7171 5.88249 12.1185C5.60627 12.2288 5.36437 12.3496 5.17901 12.4873C5.005 12.6165 4.79489 12.8244 4.75679 13.1283C4.73136 13.3312 4.77785 13.5249 4.88982 13.6896C4.99212 13.84 5.13089 13.9398 5.25101 14.0081C5.47007 14.1327 5.76281 14.2247 6.0208 14.3057C6.03238 14.3093 6.04389 14.3129 6.05532 14.3165C6.13364 14.3411 6.21221 14.3658 6.29242 14.3919C6.58136 14.4858 6.92369 14.5889 7.24781 14.6702C7.56032 14.7486 7.89585 14.8172 8.15382 14.8228C8.65604 14.8336 9.15791 14.6272 9.64428 14.2936C10.4014 13.7825 11.0659 13.3353 11.638 12.9519C11.5588 13.0257 11.4834 13.0957 11.4133 13.1609L11.3718 13.1995C11.135 13.4197 10.9477 13.5938 10.8991 13.6442L11.2593 13.991L10.8991 13.6442C10.8199 13.7264 10.7383 13.8052 10.6525 13.8879L10.6416 13.8985C10.5187 14.0168 10.3783 14.1522 10.264 14.2907C10.1476 14.4318 10.018 14.6227 9.97119 14.86C9.86009 15.4231 10.253 15.8434 10.7461 16.1683C11.1939 16.4634 11.5521 16.7073 11.9123 16.9526L11.9129 16.9531C12.3062 17.2209 12.7016 17.4902 13.2131 17.8254C13.3329 17.904 13.4487 17.9864 13.5701 18.073C13.5873 18.0853 13.6048 18.0978 13.6225 18.1104C14.0372 18.4071 14.5873 18.8007 15.2835 18.7366C15.9371 18.6765 16.3205 18.0735 16.4843 17.1978C16.85 15.2426 17.5737 10.9817 17.7424 9.20905C17.7624 8.99911 17.7386 8.75685 17.719 8.64235C17.699 8.52514 17.6417 8.24834 17.384 8.03919ZM12 24.2988C5.64873 24.2988 0.5 19.1501 0.5 12.7988C0.5 6.44755 5.64873 1.29883 12 1.29883C18.3513 1.29883 23.5 6.44755 23.5 12.7988C23.5 19.1501 18.3513 24.2988 12 24.2988Z" stroke="white"/>
</svg>
