<svg width="24" height="25" viewBox="0 0 24 25" fill="none" xmlns="http://www.w3.org/2000/svg">
<path d="M15.241 14.1465L15.1882 14.1201C15.1187 14.0853 15.0695 14.0653 15.0334 14.0552C15.0136 14.0497 15.0019 14.0483 14.9962 14.048C14.9861 14.0564 14.9611 14.0832 14.9236 14.1583L14.9236 14.1583C14.8744 14.2566 14.7958 14.3666 14.715 14.4712C14.6325 14.578 14.5363 14.6935 14.4438 14.8044L14.4421 14.8065C14.3476 14.9199 14.257 15.0287 14.1807 15.1275C14.1021 15.2291 14.0495 15.3066 14.0236 15.3583L14.0055 15.3946L13.9768 15.4233C13.7526 15.6475 13.5031 15.647 13.2373 15.6465C13.2249 15.6465 13.2125 15.6465 13.2 15.6465H13.141L13.0882 15.6201C13.0481 15.6 12.9931 15.5757 12.916 15.5418L15.241 14.1465ZM15.241 14.1465H15.3C15.2999 14.1465 15.3001 14.1465 15.3007 14.1466C15.3052 14.1472 15.3328 14.1509 15.3932 14.1687C15.4543 14.1868 15.5317 14.214 15.6222 14.2491C15.8028 14.3191 16.0226 14.4152 16.2458 14.5175C16.6916 14.7218 17.1383 14.9451 17.2882 15.0201C17.3421 15.0471 17.3951 15.0694 17.4396 15.0882L17.4424 15.0894C17.5704 15.1434 17.6417 15.1766 17.7055 15.2473C17.7696 15.3184 17.8463 15.4529 17.9049 15.7455L17.9451 15.9465H17.9981C17.9991 15.9798 17.9983 16.0212 17.9945 16.0711C17.978 16.2854 17.9101 16.598 17.7679 16.9536L17.7616 16.9694L17.7575 16.9858C17.7345 17.0775 17.6629 17.2002 17.5328 17.3409C17.4061 17.478 17.2394 17.6156 17.0551 17.7385C16.8711 17.8612 16.6754 17.9652 16.4939 18.0378C16.3084 18.112 16.1548 18.1465 16.05 18.1465C15.9372 18.1465 15.8304 18.1559 15.7294 18.1649L15.725 18.1653L15.723 18.1654C15.4779 18.1871 15.2085 18.2109 14.7455 18.1282C14.2739 18.044 13.5952 17.8477 12.5452 17.4153L12.5428 17.4144C9.99027 16.3933 8.20517 13.9052 7.69034 13.1852L7.6895 13.1841C7.65413 13.1346 7.62363 13.092 7.59965 13.0594C7.58798 13.0435 7.57323 13.0236 7.5578 13.0047C7.52508 12.9449 7.47617 12.8677 7.42437 12.786L7.41593 12.7726L7.20472 12.9064L7.41592 12.7726C7.07963 12.2416 6.40001 11.1586 6.40001 9.99649C6.40001 8.60001 7.08928 7.91074 7.37447 7.62555L7.37676 7.62326L15.241 14.1465ZM7.14454 13.2946L7.12639 13.2583C7.10803 13.2216 7.06559 13.1539 6.99351 13.0401L6.98623 13.0286C6.65491 12.5056 5.90001 11.3138 5.90001 9.99649C5.90001 8.39673 6.70698 7.58594 7.0232 7.26971L7.0232 7.2697C7.39518 6.89773 7.78056 6.89648 7.94998 6.89648H8.55002C8.55214 6.89648 8.55434 6.89648 8.55661 6.89648C8.63373 6.8964 8.79605 6.89624 8.96182 6.97913C9.13934 7.06789 9.28842 7.23326 9.38124 7.5C9.53582 7.81159 9.75956 8.33471 9.94463 8.79738C10.0391 9.03343 10.1247 9.25695 10.1871 9.43213C10.2182 9.51943 10.2444 9.5971 10.2631 9.6594C10.2724 9.69038 10.2807 9.72019 10.2868 9.74691C10.2917 9.76795 10.3 9.80649 10.3 9.84649C10.3 9.84424 10.2997 9.84776 10.303 9.86087C10.3065 9.87494 10.3116 9.89076 10.3205 9.91742C10.3214 9.91996 10.3223 9.92267 10.3232 9.92556C10.3382 9.96998 10.3667 10.0546 10.3667 10.1465C10.3667 10.2635 10.3231 10.3769 10.2268 10.4733L10.2268 10.4733C10.1833 10.5167 10.1611 10.5584 10.1236 10.6333L10.1208 10.639C10.0834 10.7138 10.0306 10.8194 9.92676 10.9233L9.4768 11.3733C9.39371 11.4563 9.35965 11.4956 9.34463 11.5331C9.33862 11.5481 9.32404 11.5855 9.37362 11.6847L9.15001 11.7965L9.37362 11.6847C9.51663 11.9707 10.098 12.986 10.9601 13.7044L10.9647 13.7083L10.9646 13.7083C11.9485 14.5692 12.7206 14.9093 13.1157 15.0834L13.1175 15.0842L13.1176 15.0842L13.1224 15.0863C13.1702 15.1074 13.2159 15.1275 13.2566 15.1464C13.3799 15.146 13.4512 15.1438 13.5072 15.1326C13.5443 15.1252 13.5708 15.1146 13.5996 15.0913C13.6484 15.0046 13.7159 14.9112 13.785 14.8218C13.8675 14.7149 13.9637 14.5995 14.0562 14.4885L14.0579 14.4864C14.1524 14.373 14.243 14.2643 14.3193 14.1655C14.3979 14.0639 14.4505 13.9864 14.4764 13.9347L7.14454 13.2946ZM7.14454 13.2946L7.16925 13.3193M7.14454 13.2946L7.16925 13.3193M7.16925 13.3193C7.17005 13.3203 7.17118 13.3217 7.17268 13.3236C7.17831 13.3307 7.18624 13.3412 7.19703 13.3559C7.21865 13.3852 7.24707 13.425 7.28363 13.4761L7.28822 13.4825C7.80338 14.2029 9.65981 16.7991 12.356 17.8781C13.4232 18.3175 14.1379 18.5276 14.6576 18.6204C15.185 18.7147 15.5049 18.6867 15.7691 18.6633C15.8747 18.654 15.9612 18.6465 16.05 18.6465C16.2453 18.6465 16.4666 18.5872 16.6796 18.502C16.8965 18.4153 17.1227 18.2943 17.3324 18.1545C17.5418 18.0149 17.7408 17.8525 17.9 17.6802C18.0515 17.5163 18.1828 17.3265 18.2379 17.1247C18.3919 16.7361 18.4723 16.3792 18.493 16.1094C18.5033 15.9756 18.5002 15.8476 18.4751 15.7433C18.4627 15.6923 18.4408 15.628 18.397 15.5711C18.3896 15.5615 18.3813 15.5519 18.3722 15.5425C18.3046 15.2585 18.2081 15.0581 18.0768 14.9125C17.9338 14.7539 17.7686 14.6843 17.6473 14.6332L17.6368 14.6287L17.5396 14.859M7.16925 13.3193L17.5396 14.859M17.5396 14.859L17.6368 14.6287C17.5896 14.6088 17.5502 14.5921 17.5118 14.5729L17.5115 14.5727M17.5396 14.859L17.5115 14.5727M17.5115 14.5727C17.361 14.4975 16.908 14.271 16.4542 14.063M17.5115 14.5727L16.4542 14.063M16.4542 14.063C16.2274 13.959 15.9972 13.8582 15.8028 13.7829M16.4542 14.063L15.8028 13.7829M15.8028 13.7829C15.7059 13.7453 15.6145 13.7128 15.535 13.6893M15.8028 13.7829L15.535 13.6893M15.535 13.6893C15.4833 13.674 15.4247 13.6587 15.3677 13.6513M15.535 13.6893L15.3677 13.6513M15.3677 13.6513C15.229 13.5851 15.0631 13.5239 14.8947 13.5576C14.6836 13.5998 14.5609 13.7657 14.4764 13.9347L15.3677 13.6513ZM7.02863 20.7321L7.0204 20.7272L7.01181 20.7229L6.71179 20.5729L6.62549 20.5297L6.53258 20.5557L3.21602 21.4844L4.14001 18.3165L4.17262 18.2047L4.10802 18.1078L3.80949 17.66C2.78849 16.0546 2.34999 14.3029 2.34999 12.5465C2.34999 7.28456 6.73807 2.89648 12 2.89648C14.6289 2.89648 16.9686 3.91685 18.8768 5.67679C20.7737 7.57552 21.65 9.90894 21.65 12.5465C21.65 17.6584 17.4119 22.0465 12 22.0465C10.24 22.0465 8.48544 21.6062 7.02863 20.7321ZM19.2268 5.31971L19.2269 5.31957L19.2196 5.31279C17.2284 3.4748 14.7694 2.39648 12 2.39648C6.46193 2.39648 1.84999 7.00841 1.84999 12.5465C1.84999 14.3892 2.31109 16.2367 3.38908 17.9307L3.38903 17.9307L3.39198 17.9352L3.6274 18.2883L2.60999 21.7765L2.48396 22.2086L2.9174 22.0872L6.57449 21.0632L6.77968 21.1658C8.32119 22.0884 10.1633 22.5465 12 22.5465C17.6881 22.5465 22.15 17.9346 22.15 12.5465C22.15 9.78567 21.2274 7.32033 19.2268 5.31971ZM15.0011 14.0447C15.0011 14.0449 15.0002 14.0455 14.9985 14.0462C15.0003 14.045 15.0012 14.0446 15.0011 14.0447ZM6.41182 22.5229L6.32768 22.4808L6.23668 22.5046L0.35599 24.0448L1.89106 18.4628L1.91895 18.3614L1.86595 18.2705C0.837044 16.5067 0.25 14.4499 0.25 12.3965C0.25 5.93455 5.53807 0.646484 12 0.646484C15.0857 0.646484 18.0215 1.82152 20.2232 4.02327C22.4308 6.23079 23.75 9.16878 23.75 12.2465C23.75 18.7084 18.4619 23.9965 12 23.9965C10.1002 23.9965 8.189 23.4115 6.41182 22.5229Z" stroke="white" stroke-width="0.5"/>
</svg>
