<svg width="233" height="155" viewBox="0 0 233 155" fill="none" xmlns="http://www.w3.org/2000/svg">
<path d="M228.982 155H4.01742C1.79892 155 0 153.173 0 150.921V4.07913C0 1.82655 1.79892 0 4.01742 0H228.983C231.201 0 233 1.82655 233 4.07913V150.921C233 153.174 231.201 155 228.982 155Z" fill="#F5F5F5"/>
<path d="M138.802 43.5689C120.342 31.0741 95.4099 36.1823 83.1119 54.8923C76.9433 64.2312 79.4508 76.9209 88.6798 83.1685C97.9019 89.4161 110.36 86.8789 116.513 77.5073C122.666 68.1361 135.132 65.6303 144.353 71.8451C153.591 78.0927 156.075 90.7825 149.913 100.121C162.219 81.3799 157.245 56.0641 138.802 43.5689Z" fill="#FF4B55"/>
<path d="M83.1117 54.8906C76.9431 64.2295 79.4506 76.9192 88.6795 83.1668C97.9017 89.4144 110.359 86.8772 116.513 77.5056C122.666 68.1344 135.132 65.6286 144.353 71.8434C153.59 78.091 156.075 90.7808 149.913 100.12C137.623 118.894 112.699 123.939 94.2397 111.443C75.7972 98.9492 70.8059 73.6335 83.1117 54.8906Z" fill="#41479B"/>
<path d="M159.246 28.16L166.543 39.2967C167.156 40.2324 166.908 41.4957 165.988 42.1209L164.138 43.3791C163.215 44.0066 161.965 43.7543 161.349 42.8154L154.043 31.6814C153.428 30.7448 153.677 29.4792 154.599 28.854L156.459 27.5935C157.382 26.9674 158.631 27.2211 159.246 28.16Z" fill="#464655"/>
<path d="M170.507 45.3445L177.828 56.4743C178.446 57.4141 178.193 58.6857 177.265 59.3086L175.407 60.5557C174.485 61.1749 173.243 60.9203 172.629 59.9874L165.312 48.8691C164.696 47.933 164.944 46.6664 165.866 46.0403L167.72 44.7817C168.643 44.1556 169.891 44.4074 170.507 45.3445Z" fill="#464655"/>
<path d="M167.06 22.8696L185.641 51.1818C186.256 52.1189 186.006 53.3849 185.083 54.0097L183.216 55.2729C182.293 55.8981 181.046 55.6444 180.431 54.7074L161.844 26.397C161.228 25.4594 161.479 24.1925 162.402 23.5682L164.275 22.3026C165.198 21.6793 166.445 21.9325 167.06 22.8696Z" fill="#464655"/>
<path d="M174.853 17.5899L182.167 28.7484C182.783 29.6882 182.53 30.9571 181.602 31.5795L179.742 32.827C178.819 33.4462 177.578 33.1916 176.964 32.2568L169.646 21.1132C169.03 20.1761 169.28 18.9096 170.203 18.2849L172.068 17.0225C172.99 16.3973 174.238 16.651 174.853 17.5899Z" fill="#464655"/>
<path d="M186.12 34.8158L193.422 45.9512C194.036 46.8873 193.787 48.1515 192.866 48.7767L191.012 50.0354C190.089 50.6624 188.839 50.4092 188.224 49.4703L180.922 38.3349C180.308 37.3988 180.557 36.1346 181.477 35.5094L183.332 34.2507C184.255 33.6237 185.504 33.8764 186.12 34.8158Z" fill="#464655"/>
<path d="M60.4047 95.0643L78.9828 123.346C79.5981 124.283 79.3496 125.549 78.4267 126.174L76.5663 127.435C75.6434 128.061 74.3961 127.808 73.7799 126.871L55.2018 98.5889C54.5865 97.6523 54.835 96.3863 55.7579 95.7611L57.6183 94.4996C58.5412 93.874 59.789 94.1272 60.4047 95.0643Z" fill="#464655"/>
<path d="M52.6075 100.346L59.9014 111.454C60.5163 112.39 60.2682 113.654 59.3476 114.28L57.4973 115.538C56.5748 116.165 55.3261 115.913 54.7095 114.976L47.4068 103.87C46.7907 102.933 47.0391 101.667 47.962 101.041L49.8215 99.7807C50.7439 99.1555 51.9917 99.4082 52.6075 100.346Z" fill="#464655"/>
<path d="M63.8782 117.534L71.1804 128.671C71.7947 129.607 71.5458 130.872 70.6242 131.497L68.7684 132.756C67.8451 133.383 66.5968 133.13 65.9806 132.192L58.6739 121.058C58.0591 120.121 58.3085 118.856 59.23 118.23L61.0904 116.969C62.0142 116.342 63.2625 116.596 63.8782 117.534Z" fill="#464655"/>
<path d="M44.8063 105.666L63.3726 133.949C63.9874 134.885 63.7385 136.15 62.8178 136.776L60.9625 138.036C60.0396 138.662 58.7913 138.41 58.1751 137.472L39.598 109.193C38.9823 108.256 39.2321 106.989 40.155 106.364L42.0217 105.101C42.9437 104.476 44.1911 104.729 44.8063 105.666Z" fill="#464655"/>
<path d="M55.2055 56.4638L73.7809 28.1589C74.3966 27.2209 75.6444 26.9677 76.5678 27.5933L78.4277 28.8543C79.3501 29.4795 79.5986 30.7456 78.9838 31.6822L60.4011 59.9713C59.7868 60.9061 58.544 61.1602 57.6215 60.5401L55.7689 59.2948C54.8415 58.672 54.5894 57.4027 55.2055 56.4638Z" fill="#464655"/>
<path d="M47.4035 51.18L65.9821 22.8696C66.5978 21.9316 67.8465 21.6784 68.7699 22.305L70.6252 23.5646C71.5463 24.1898 71.7948 25.454 71.1804 26.3906L52.6069 54.7024C51.9912 55.6404 50.7433 55.894 49.82 55.2679L47.9596 54.0069C47.0376 53.3822 46.7887 52.1166 47.4035 51.18Z" fill="#464655"/>
<path d="M39.5946 45.9277L58.1749 17.5891C58.7907 16.6507 60.0398 16.397 60.9632 17.0236L62.8185 18.2832C63.7396 18.9083 63.9881 20.1716 63.3746 21.1082L44.8057 49.451C44.1909 50.3894 42.9426 50.6436 42.0192 50.0184L40.1525 48.7551C39.2301 48.1304 38.9807 46.8648 39.5946 45.9277Z" fill="#464655"/>
<path d="M154.046 123.357L161.349 112.251C161.966 111.313 163.214 111.062 164.137 111.689L165.987 112.947C166.908 113.572 167.155 114.837 166.541 115.773L159.247 126.881C158.631 127.818 157.383 128.072 156.46 127.446L154.601 126.186C153.679 125.56 153.43 124.294 154.046 123.357Z" fill="#464655"/>
<path d="M165.31 106.227L172.625 95.0659C173.24 94.1279 174.488 93.8738 175.411 94.499L177.275 95.7604C178.198 96.3856 178.448 97.653 177.832 98.5901L170.502 109.733C169.887 110.668 168.644 110.921 167.722 110.3L165.873 109.056C164.947 108.433 164.695 107.165 165.31 106.227Z" fill="#464655"/>
<path d="M161.844 128.669L169.151 117.534C169.766 116.596 171.014 116.343 171.937 116.968L173.805 118.233C174.727 118.857 174.976 120.122 174.362 121.06L167.059 132.196C166.445 133.133 165.198 133.387 164.274 132.763L162.402 131.498C161.479 130.873 161.229 129.606 161.844 128.669Z" fill="#464655"/>
<path d="M173.122 111.453L180.433 100.344C181.049 99.4082 182.295 99.156 183.218 99.7802L185.084 101.044C186.008 101.669 186.257 102.936 185.64 103.873L178.329 114.982C177.713 115.918 176.467 116.17 175.545 115.546L173.678 114.283C172.754 113.658 172.505 112.391 173.122 111.453Z" fill="#464655"/>
<path d="M169.647 133.928L176.962 122.813C177.577 121.88 178.818 121.626 179.74 122.244L181.599 123.492C182.527 124.115 182.78 125.385 182.163 126.325L174.853 137.455C174.238 138.392 172.99 138.645 172.067 138.021L170.202 136.758C169.279 136.133 169.03 134.865 169.647 133.928Z" fill="#464655"/>
<path d="M180.924 116.796L188.222 105.667C188.837 104.729 190.087 104.475 191.01 105.102L192.863 106.36C193.784 106.985 194.032 108.251 193.417 109.187L186.114 120.301C185.5 121.237 184.256 121.49 183.333 120.869L181.486 119.626C180.56 119.003 180.309 117.735 180.924 116.796Z" fill="#464655"/>
</svg>
