<svg height="500" viewBox="0 0 250 125" width="1000" xmlns="http://www.w3.org/2000/svg" xmlns:xlink="http://www.w3.org/1999/xlink"><path d="m0 0h250v125h-250z" fill="#fff"/><path d="m0 0h250v42h-250z" fill="#008eb7"/><path d="m0 83h250v42h-250z" fill="#209c3a"/><path d="m0 43h250v39h-250z" fill="#da251d"/><path d="m0 45.5h250v34h-250z" fill="#f7bd29"/><circle cx="31" cy="21" fill="#fff" r="11"/><circle cx="35" cy="21" fill="#008eb7" r="9.5"/><g id="a" fill="#fff" transform="matrix(5 0 0 5 47 26)"><g id="b"><path id="c" d="m0 0v1h.5z" transform="matrix(.951 .309 -.309 .951 0 -1)"/><use transform="scale(-1 1)" xlink:href="#c"/></g><use transform="matrix(.309 .951 -.951 .309 0 0)" xlink:href="#b"/><use transform="matrix(.309 -.951 .951 .309 0 0)" xlink:href="#b"/><use transform="matrix(-.809 .588 -.588 -.809 0 0)" xlink:href="#b"/><use transform="matrix(-.809 -.588 .588 -.809 0 0)" xlink:href="#b"/></g><use transform="translate(10)" xlink:href="#a"/><use transform="translate(20)" xlink:href="#a"/><use transform="translate(5 -6)" xlink:href="#a"/><use transform="translate(15 -6)" xlink:href="#a"/></svg>