<svg width="233" height="155" viewBox="0 0 233 155" fill="none" xmlns="http://www.w3.org/2000/svg">
<g clip-path="url(#clip0_874_14734)">
<path d="M0 0H233V155H0V0Z" fill="#E30A17"/>
<path d="M117.953 53.7502C112.003 49.4446 104.782 47.1332 97.3785 47.1785C78.8475 47.1785 63.8592 61.1376 63.8592 78.4051C63.8592 95.6727 78.8929 109.632 97.3785 109.632C105.145 109.632 112.321 107.184 117.953 103.06C104.328 120.554 79.0291 123.727 61.4974 110.085C43.9656 96.4431 40.7863 71.2443 54.4574 53.7502C68.1286 36.256 93.3816 33.0835 110.913 46.7253C113.548 48.7648 115.909 51.1668 117.953 53.7502ZM136.076 83.5718L127.855 93.4972L128.4 80.6259L116.409 75.9124L128.808 72.468L129.626 59.642L136.711 70.3832L149.202 67.1654L141.253 77.1361L148.202 87.968L136.076 83.5718Z" fill="white"/>
</g>
<defs>
<clipPath id="clip0_874_14734">
<rect width="233" height="155" fill="white"/>
</clipPath>
</defs>
</svg>
